<svg width="132" height="51" viewBox="0 0 132 51" fill="none" xmlns="http://www.w3.org/2000/svg">
<path d="M6.87821 35.6321V22.7633H1.55322V20.1008H15.1985V22.7633H9.76259V35.6321H6.87821ZM14.6234 35.6321L21.5459 20.1008H24.4524L31.3527 35.6321H28.313L24.0531 26.0471C23.9347 25.8104 23.809 25.5294 23.6758 25.2039C23.5575 24.8785 23.4318 24.5457 23.2987 24.2055C23.1655 23.8505 23.0398 23.5103 22.9216 23.1848C22.8031 22.8446 22.6996 22.5414 22.6109 22.2752L23.2765 22.253C23.173 22.5636 23.062 22.889 22.9436 23.2292C22.8253 23.5547 22.6996 23.8874 22.5665 24.2277C22.4333 24.5679 22.3002 24.8932 22.1672 25.2039C22.034 25.5144 21.9083 25.8177 21.7899 26.1137L17.5521 35.6321H14.6234ZM17.7297 32.2151L18.7502 29.708H27.0483L27.7584 32.2151H17.7297ZM36.6383 35.6321V28.3323L36.949 29.7746L29.5163 20.1008H33.1328L38.6352 27.5113L37.6146 27.4891L42.8287 20.1008H46.2011L39.323 29.5526L39.5228 28.1548V35.6321H36.6383ZM48.0625 35.6321V20.1008H50.9468V32.9695H59.844V35.6321H48.0625ZM70.0951 35.8538C68.8379 35.8538 67.6767 35.6543 66.6117 35.2548C65.5466 34.8407 64.6148 34.2712 63.8161 33.5464C63.0322 32.8217 62.4257 31.971 61.9967 30.9948C61.5678 30.0185 61.3533 28.9683 61.3533 27.8442C61.3533 26.7053 61.5678 25.6551 61.9967 24.6936C62.4257 23.7173 63.0322 22.8668 63.8161 22.1421C64.6148 21.4173 65.5466 20.8552 66.6117 20.4557C67.6767 20.0417 68.8379 19.8345 70.0951 19.8345C71.382 19.8345 72.5579 20.0342 73.623 20.4335C74.6879 20.833 75.6124 21.4024 76.3963 22.1421C77.1804 22.8668 77.7869 23.7173 78.2158 24.6936C78.6448 25.6551 78.8593 26.7053 78.8593 27.8442C78.8593 28.9832 78.6448 30.0407 78.2158 31.017C77.7869 31.9785 77.1804 32.8289 76.3963 33.5686C75.6124 34.2934 74.6879 34.8555 73.623 35.2548C72.5579 35.6543 71.382 35.8538 70.0951 35.8538ZM70.1173 33.1027C70.9752 33.1027 71.7518 32.9695 72.4471 32.7032C73.1571 32.4371 73.7709 32.0672 74.2886 31.5939C74.8063 31.1058 75.2057 30.5437 75.4867 29.9077C75.7825 29.2716 75.9304 28.5837 75.9304 27.8442C75.9304 27.1046 75.7825 26.4168 75.4867 25.7808C75.2057 25.1448 74.8063 24.5901 74.2886 24.1168C73.7709 23.6285 73.1571 23.2514 72.4471 22.9851C71.7371 22.7189 70.9605 22.5858 70.1173 22.5858C69.2743 22.5858 68.4902 22.7189 67.7655 22.9851C67.0554 23.2514 66.4417 23.6212 65.9239 24.0946C65.4062 24.5679 65.0069 25.1226 64.7258 25.7586C64.4448 26.3946 64.3041 27.0898 64.3041 27.8442C64.3041 28.5837 64.4448 29.279 64.7258 29.9299C65.0069 30.5659 65.4062 31.1206 65.9239 31.5939C66.4417 32.0672 67.0554 32.4371 67.7655 32.7032C68.4902 32.9695 69.2743 33.1027 70.1173 33.1027ZM81.803 35.6321V20.1008H89.8348C90.8259 20.1008 91.7134 20.3153 92.4973 20.7442C93.2814 21.1584 93.9026 21.7353 94.3611 22.4748C94.8344 23.2145 95.0711 24.0575 95.0711 25.0042C95.0711 25.9214 94.8271 26.7644 94.3389 27.5335C93.8508 28.2879 93.2001 28.887 92.3864 29.3309C91.5728 29.7746 90.6705 29.9963 89.6796 29.9963H84.6209V35.6321H81.803ZM92.3864 35.6321L87.6827 28.6208L90.7002 28.066L95.8477 35.6543L92.3864 35.6321ZM84.6209 27.4891H89.5465C90.0198 27.4891 90.4488 27.3856 90.8333 27.1786C91.2179 26.9567 91.5212 26.6609 91.7429 26.291C91.9796 25.9214 92.098 25.5072 92.098 25.0486C92.098 24.5901 91.9723 24.1906 91.7209 23.8505C91.4693 23.4955 91.1291 23.2145 90.7002 23.0073C90.2859 22.8002 89.8128 22.6967 89.2801 22.6967H84.6209V27.4891ZM98.9766 35.6321V20.1008H110.869V22.7189H101.817V33.0139H110.958V35.6321H98.9766ZM100.441 28.9758V26.402H109.737V28.9758H100.441ZM114.46 35.6321V20.1008H121.693C122.995 20.1008 124.156 20.3005 125.177 20.6998C126.197 21.0844 127.063 21.6318 127.773 22.3416C128.483 23.0517 129.015 23.8801 129.37 24.8268C129.74 25.7586 129.925 26.7718 129.925 27.8664C129.925 28.9758 129.74 30.0038 129.37 30.9505C129.015 31.8824 128.483 32.7032 127.773 33.4132C127.063 34.1085 126.197 34.6557 125.177 35.0552C124.156 35.4398 122.995 35.6321 121.693 35.6321H114.46ZM117.345 33.3911L117.123 32.9695H121.582C122.485 32.9695 123.269 32.8438 123.934 32.5923C124.615 32.3261 125.177 31.9637 125.621 31.5051C126.064 31.0465 126.39 30.5141 126.597 29.9077C126.819 29.2865 126.93 28.6059 126.93 27.8664C126.93 27.1417 126.819 26.476 126.597 25.8695C126.39 25.2483 126.057 24.7084 125.598 24.2498C125.154 23.7766 124.6 23.414 123.934 23.1626C123.269 22.8965 122.485 22.7633 121.582 22.7633H117.056L117.345 22.386V33.3911Z" fill="#00523E"/>
<path d="M65.2717 5.72348C65.2717 2.56304 62.7096 0.000976562 59.5492 0.000976562C56.3887 0.000976562 53.8267 2.56304 53.8267 5.72348C53.8267 8.88393 56.3887 11.446 59.5492 11.446C62.7096 11.446 65.2717 8.88393 65.2717 5.72348ZM56.3516 5.72348C56.3516 3.9575 57.7832 2.52589 59.5492 2.52589C61.3152 2.52589 62.7467 3.9575 62.7467 5.72348C62.7467 7.48947 61.3152 8.92108 59.5492 8.92108C57.7832 8.92108 56.3516 7.48947 56.3516 5.72348Z" fill="#00523E"/>
<path d="M70.5925 9.18882C70.5925 6.02835 68.0304 3.46631 64.87 3.46631C61.7095 3.46631 59.1475 6.02835 59.1475 9.18882C59.1475 12.3493 61.7095 14.9113 64.87 14.9113C68.0304 14.9113 70.5925 12.3493 70.5925 9.18882ZM61.6724 9.18882C61.6724 7.42283 63.104 5.99122 64.87 5.99122C66.636 5.99122 68.0675 7.42283 68.0675 9.18882C68.0675 10.9548 66.636 12.3864 64.87 12.3864C63.104 12.3864 61.6724 10.9548 61.6724 9.18882Z" fill="#008262"/>
<path d="M62.3723 7.22992L64.1068 9.18685C64.8391 8.22529 65.2738 7.02492 65.2738 5.72299C65.2738 2.56254 62.7118 0.000488281 59.5513 0.000488281V2.52541C61.3173 2.52541 62.7489 3.95702 62.7489 5.72299C62.7489 6.26788 62.6126 6.78094 62.3723 7.22992Z" fill="#00523E"/>
<path d="M23.5601 43.4134H27.2874V44.4224H25.2852V45.5852H27.0411V46.6942H25.2852V48.8582H23.5601V43.4134ZM28.8117 43.4134H30.5367V48.8582H28.8117V43.4134ZM32.4806 43.4134H34.1479L36.2196 46.1473V43.4134H37.5365V48.8582H35.8268L33.786 45.9625V48.8582H32.4806V43.4134ZM44.1588 48.8582H42.1027L41.8484 47.6992H40.497L40.2543 48.8582H38.8643L40.2505 43.4134H42.661L44.1588 48.8582ZM41.1901 44.2606L40.6626 46.7982H41.7638L41.3093 44.2606H41.1901ZM45.4866 43.4134H47.1539L49.2255 46.1473V43.4134H50.5425V48.8582H48.8328L46.7921 45.9625V48.8582H45.4866V43.4134ZM52.186 46.1473C52.186 45.7084 52.2643 45.3144 52.421 44.9653C52.5802 44.6135 52.7945 44.3159 53.064 44.0719C53.3336 43.8255 53.6468 43.6368 54.0035 43.5058C54.3604 43.375 54.7391 43.3096 55.1395 43.3096C55.4193 43.3096 55.7043 43.3364 55.9943 43.3904C56.2843 43.4442 56.5731 43.5418 56.8607 43.683L56.622 44.9153C56.3961 44.792 56.1727 44.6996 55.9519 44.638C55.7311 44.5764 55.5284 44.5456 55.3436 44.5456C55.1201 44.5456 54.9199 44.5827 54.7429 44.6572C54.5656 44.7291 54.4156 44.8343 54.2924 44.9729C54.1692 45.1115 54.0741 45.2798 54.0073 45.4774C53.9432 45.6751 53.9111 45.8984 53.9111 46.1473C53.9111 46.3964 53.9432 46.6197 54.0073 46.8174C54.0741 47.015 54.1692 47.1833 54.2924 47.3219C54.4156 47.4604 54.5656 47.567 54.7429 47.6414C54.9199 47.7133 55.1201 47.7492 55.3436 47.7492C55.5284 47.7492 55.7311 47.7184 55.9519 47.6568C56.1727 47.5952 56.3961 47.5028 56.622 47.3795L56.8607 48.6118C56.5731 48.7504 56.2843 48.8441 55.9943 48.8928C55.7043 48.9442 55.4193 48.9698 55.1395 48.9698C54.7391 48.9698 54.3604 48.9057 54.0035 48.7774C53.6468 48.6464 53.3336 48.4604 53.064 48.2191C52.7945 47.9751 52.5802 47.6787 52.421 47.3295C52.2643 46.9804 52.186 46.5864 52.186 46.1473ZM58.6197 43.4134H60.3448V48.8582H58.6197V43.4134ZM66.9672 48.8582H64.911L64.6569 47.6992H63.3053L63.0627 48.8582H61.6726L63.0589 43.4134H65.4693L66.9672 48.8582ZM63.9984 44.2606L63.4709 46.7982H64.5721L64.1178 44.2606H63.9984ZM68.295 43.4134H70.0201V47.7492H71.8684V48.8582H68.295V43.4134ZM81.4128 48.8582H79.3565L79.1024 47.6992H77.7508L77.5083 48.8582H76.1182L77.5043 43.4134H79.9149L81.4128 48.8582ZM78.4439 44.2606L77.9164 46.7982H79.0176L78.5633 44.2606H78.4439ZM82.7406 48.8582V43.4134H84.6351C85.1022 43.4134 85.5221 43.4687 85.8942 43.579C86.2665 43.6869 86.5809 43.8525 86.8376 44.0757C87.0969 44.2965 87.2945 44.5751 87.4307 44.9113C87.5693 45.245 87.6385 45.6379 87.6385 46.0897C87.6385 46.4337 87.6026 46.7417 87.5307 47.0139C87.4615 47.2833 87.3613 47.5208 87.2304 47.7262C87.1021 47.9316 86.9454 48.1061 86.7606 48.2499C86.5784 48.391 86.3755 48.5078 86.1522 48.6002C85.9288 48.6901 85.6875 48.7555 85.4283 48.7966C85.1716 48.8377 84.902 48.8582 84.6197 48.8582H82.7406ZM84.4657 47.626H84.5812C84.7814 47.626 84.9636 47.6081 85.1279 47.5722C85.2922 47.5336 85.4321 47.4592 85.5477 47.3487C85.6658 47.2384 85.7556 47.0831 85.8172 46.8828C85.8814 46.6826 85.9134 46.4183 85.9134 46.0897C85.9134 45.7919 85.8853 45.5441 85.8288 45.3465C85.7723 45.1463 85.6888 44.9871 85.5785 44.8691C85.4681 44.7483 85.3321 44.6637 85.1703 44.6148C85.0086 44.5635 84.8238 44.5378 84.6158 44.5378H84.4657V47.626ZM88.6852 43.4134H90.78L91.5732 47.4758L92.505 43.4134H93.8604L92.3857 48.8582H90.0407L88.6852 43.4134ZM95.1884 43.4134H96.9133V48.8582H95.1884V43.4134ZM98.5569 46.1473C98.5569 45.7084 98.6353 45.3144 98.7918 44.9653C98.9509 44.6135 99.1652 44.3159 99.4349 44.0719C99.7043 43.8255 100.018 43.6368 100.374 43.5058C100.731 43.375 101.11 43.3096 101.51 43.3096C101.79 43.3096 102.075 43.3364 102.365 43.3904C102.655 43.4442 102.944 43.5418 103.232 43.683L102.993 44.9153C102.767 44.792 102.544 44.6996 102.323 44.638C102.102 44.5764 101.899 44.5456 101.714 44.5456C101.491 44.5456 101.291 44.5827 101.114 44.6572C100.937 44.7291 100.786 44.8343 100.663 44.9729C100.54 45.1115 100.445 45.2798 100.378 45.4774C100.314 45.6751 100.282 45.8984 100.282 46.1473C100.282 46.3964 100.314 46.6197 100.378 46.8174C100.445 47.015 100.54 47.1833 100.663 47.3219C100.786 47.4604 100.937 47.567 101.114 47.6414C101.291 47.7133 101.491 47.7492 101.714 47.7492C101.899 47.7492 102.102 47.7184 102.323 47.6568C102.544 47.5952 102.767 47.5028 102.993 47.3795L103.232 48.6118C102.944 48.7504 102.655 48.8441 102.365 48.8928C102.075 48.9442 101.79 48.9698 101.51 48.9698C101.11 48.9698 100.731 48.9057 100.374 48.7774C100.018 48.6464 99.7043 48.4604 99.4349 48.2191C99.1652 47.9751 98.9509 47.6787 98.7918 47.3295C98.6353 46.9804 98.5569 46.5864 98.5569 46.1473ZM104.991 43.4134H108.81V44.4224H106.716V45.5736H108.564V46.5594H106.716V47.7492H108.81V48.8582H104.991V43.4134Z" fill="#00523E"/>
</svg>
